<svg id="Layer_1" data-name="Layer 1" xmlns="http://www.w3.org/2000/svg" viewBox="0 0 378.381 177.19">
  <defs>
    <style>
      .cls-1 {
        fill: #fff;
      }
    </style>
  </defs>
  <title>Artboard 1</title>
  <g>
    <path class="cls-1" d="M100.728,132.6H88.538L68.327,108.329l-6.59,6.918V132.6H52.4V55.5h9.336v46.131L87.809,74.78l12.871.055L74.917,101.517Z"/>
    <path class="cls-1" d="M143.832,77.928a23.813,23.813,0,0,1,10.27,2.251,27.418,27.418,0,0,1,8.348,6.042,28.471,28.471,0,0,1,5.657,8.951,29.346,29.346,0,0,1,2.087,11.094,29.41,29.41,0,0,1-7.744,19.991,26.974,26.974,0,0,1-8.348,6.095,23.8,23.8,0,0,1-10.27,2.252,24.419,24.419,0,0,1-10.215-2.142,25.071,25.071,0,0,1-8.238-5.987v6.153h-9.445v-77h9.445V86.056a26.657,26.657,0,0,1,8.238-5.931A23.916,23.916,0,0,1,143.832,77.928Zm-.768,47.559A16.312,16.312,0,0,0,149.928,124a17.478,17.478,0,0,0,5.656-4.119,20.341,20.341,0,0,0,3.846-6.151A20.031,20.031,0,0,0,155.584,92.7a18.627,18.627,0,0,0-5.656-4.12,16.094,16.094,0,0,0-13.73,0,18.58,18.58,0,0,0-5.657,4.12,18.817,18.817,0,0,0-3.789,6.094,20.995,20.995,0,0,0,0,14.939,19.465,19.465,0,0,0,3.789,6.151A17.437,17.437,0,0,0,136.2,124,16.308,16.308,0,0,0,143.064,125.487Z"/>
    <path class="cls-1" d="M325.142,80.136v52.722H315.7v-6.151a25.127,25.127,0,0,1-8.238,5.986,25.264,25.264,0,0,1-20.484-.055,26.178,26.178,0,0,1-8.348-6.041,29.7,29.7,0,0,1,0-40.09,26.983,26.983,0,0,1,8.348-6.1,23.816,23.816,0,0,1,10.269-2.251A24.45,24.45,0,0,1,307.458,80.3a25.145,25.145,0,0,1,8.238,5.986V80.136Zm-27.129,45.583a15.8,15.8,0,0,0,6.864-1.538,18.586,18.586,0,0,0,5.657-4.118,18.9,18.9,0,0,0,3.789-6.1,20.993,20.993,0,0,0,0-14.938,18.917,18.917,0,0,0-3.789-6.1,18.618,18.618,0,0,0-5.657-4.119,16.087,16.087,0,0,0-13.73,0,18.57,18.57,0,0,0-5.655,4.119,20.037,20.037,0,0,0,0,27.13,18.537,18.537,0,0,0,5.655,4.118A15.8,15.8,0,0,0,298.013,125.719Z"/>
    <path class="cls-1" d="M24.088,22.429v131.2h189.83v-71H226.71v71H353.693V22.429Zm160.386,117.06H38.225V36.565H184.474Zm41.782-71.531a7.863,7.863,0,0,1-5.867,2.483,8.475,8.475,0,0,1-8.427-8.426,7.868,7.868,0,0,1,2.482-5.869,8.24,8.24,0,0,1,5.945-2.407,8.222,8.222,0,0,1,8.276,8.276A8.24,8.24,0,0,1,226.256,67.957Zm113.072,71.531H256.882V36.565h82.446Z"/>
  </g>
</svg>
